<svg width="136" height="82" viewBox="0 0 136 82" fill="none" xmlns="http://www.w3.org/2000/svg">
<path d="M65.287 11.3535H41.5023V31.4526H65.287V11.3535Z" fill="#99FF99" fill-opacity="0.8"/>
<path fill-rule="evenodd" clip-rule="evenodd" d="M52.0895 25.8478H64.3377C64.3136 26.1786 63.8309 28.016 63.2972 29.9851H45.1188C44.6514 29.9851 44.2251 29.7926 43.9151 29.4826C43.6051 29.1726 43.4126 28.7463 43.4126 28.2789V14.9699C43.4126 14.5025 43.6051 14.0762 43.9151 13.7662C44.2251 13.4562 44.6514 13.2637 45.1188 13.2637H59.1732L58.9109 13.5792C58.7296 13.7717 58.7259 13.8185 58.5716 14.0001L57.9025 14.7669C57.8072 14.8873 57.8595 14.8451 57.7641 14.9662C57.6851 15.0665 57.6441 15.0897 57.5652 15.1898L53.1656 20.5042C53.0045 20.694 52.984 20.6897 52.8159 20.9147L51.4354 22.5752C50.9462 23.1146 50.3055 23.6546 50.4018 24.5084C50.4723 25.1337 50.9607 25.5963 51.4402 25.7483C51.6813 25.8247 51.7889 25.8478 52.0894 25.8478H52.0895ZM92.5534 17.3587H92.5875C94.4645 17.3587 96 18.8943 96 20.7712V22.4775C96 24.3544 94.4644 25.89 92.5875 25.89H92.5534V28.2788C92.5534 29.6882 91.978 30.9683 91.0511 31.8953C90.1242 32.8222 88.8441 33.3976 87.4346 33.3976H70.5498L68.5108 35.8491C67.5683 37.1032 65.4266 39.5638 64.3598 40.8208C63.5375 41.7896 62.8322 43.044 61.9204 43.2484H61.4041C61.2031 43.2042 60.9916 43.1082 60.7666 42.9483C59.6234 42.1365 60.55 40.3309 60.942 38.7542L61.3475 37.2293C61.4036 37.0045 61.4182 36.9273 61.4644 36.7431L61.8705 35.2212C61.9299 34.9792 62.1169 34.2942 62.3632 33.3975H45.1188C43.7094 33.3975 42.4293 32.8221 41.5023 31.8952C40.5754 30.9683 40 29.6882 40 28.2787V14.9697C40 13.5603 40.5754 12.2802 41.5023 11.3532C42.4292 10.4262 43.7093 9.85088 45.1188 9.85088H62.0104L69.7627 0.525908C70.0408 0.231166 70.395 0.047298 70.752 0H71.1124C71.3045 0.0264132 71.4898 0.0965415 71.6563 0.214786C72.5599 0.856892 72.4127 1.64847 72.1196 2.62944L71.2134 6.03356C71.0111 6.82012 70.8058 7.57873 70.6042 8.29639C70.4647 8.79251 70.3304 9.33111 70.1999 9.85078H87.4347C88.8441 9.85078 90.1242 10.4261 91.0512 11.3531C91.9781 12.28 92.5535 13.5601 92.5535 14.9696V17.3584L92.5534 17.3587ZM73.3883 29.9851L74.0723 29.1627C74.2605 28.9631 74.2835 28.8843 74.4524 28.6981L77.3243 25.2349C77.4999 25.0411 77.5113 25.0179 77.6682 24.8185L79.8176 22.2544C79.9115 22.1437 79.9495 22.1197 80.0268 22.0247L81.6755 20.0411C81.9682 19.7218 82.2561 19.1476 82.1312 18.6279C82.1247 18.6005 82.0301 18.342 82.0205 18.3194C81.755 17.692 81.2503 17.4009 80.4712 17.4009H68.2231C68.286 16.7553 68.9626 14.4322 69.2905 13.2637H87.4345C87.9019 13.2637 88.3282 13.4562 88.6382 13.7662C88.9482 14.0762 89.1407 14.5025 89.1407 14.9699V17.3587V25.89V28.2788C89.1407 28.7462 88.9482 29.1725 88.6382 29.4825C88.3282 29.7925 87.9019 29.985 87.4345 29.985H73.3882L73.3883 29.9851Z" fill="white"/>
<path d="M4.74247 69.0804V66.1524H8.39047C8.85447 66.1524 9.27847 66.0564 9.66247 65.8644C10.0465 65.6724 10.3505 65.3924 10.5745 65.0244C10.7985 64.6564 10.9105 64.2084 10.9105 63.6804C10.9105 63.1684 10.7985 62.7284 10.5745 62.3604C10.3505 61.9924 10.0465 61.7124 9.66247 61.5204C9.27847 61.3284 8.85447 61.2324 8.39047 61.2324H4.74247V58.3044H8.94247C10.0145 58.3044 10.9825 58.5204 11.8465 58.9524C12.7105 59.3844 13.3905 60.0084 13.8865 60.8244C14.3985 61.6244 14.6545 62.5764 14.6545 63.6804C14.6545 64.7844 14.3985 65.7444 13.8865 66.5604C13.3905 67.3604 12.7105 67.9844 11.8465 68.4324C10.9825 68.8644 10.0145 69.0804 8.94247 69.0804H4.74247ZM1.86247 75.2484V58.3044H5.63047V75.2484H1.86247ZM21.7206 75.5124C20.5206 75.5124 19.4326 75.2484 18.4566 74.7204C17.4966 74.1764 16.7366 73.4404 16.1766 72.5124C15.6166 71.5844 15.3366 70.5444 15.3366 69.3924C15.3366 68.2404 15.6166 67.2084 16.1766 66.2964C16.7366 65.3844 17.4966 64.6644 18.4566 64.1364C19.4166 63.5924 20.5046 63.3204 21.7206 63.3204C22.9366 63.3204 24.0246 63.5844 24.9846 64.1124C25.9446 64.6404 26.7046 65.3684 27.2646 66.2964C27.8246 67.2084 28.1046 68.2404 28.1046 69.3924C28.1046 70.5444 27.8246 71.5844 27.2646 72.5124C26.7046 73.4404 25.9446 74.1764 24.9846 74.7204C24.0246 75.2484 22.9366 75.5124 21.7206 75.5124ZM21.7206 72.1764C22.2486 72.1764 22.7126 72.0644 23.1126 71.8404C23.5126 71.6004 23.8166 71.2724 24.0246 70.8564C24.2486 70.4244 24.3606 69.9364 24.3606 69.3924C24.3606 68.8484 24.2486 68.3764 24.0246 67.9764C23.8006 67.5604 23.4886 67.2404 23.0886 67.0164C22.7046 66.7764 22.2486 66.6564 21.7206 66.6564C21.2086 66.6564 20.7526 66.7764 20.3526 67.0164C19.9526 67.2404 19.6406 67.5604 19.4166 67.9764C19.1926 68.3924 19.0806 68.8724 19.0806 69.4164C19.0806 69.9444 19.1926 70.4244 19.4166 70.8564C19.6406 71.2724 19.9526 71.6004 20.3526 71.8404C20.7526 72.0644 21.2086 72.1764 21.7206 72.1764ZM32.5543 75.2484L28.5223 63.5844H32.1223L34.6183 72.0564L33.5623 72.0804L36.3223 63.5844H39.2983L42.0823 72.0804L41.0023 72.0564L43.5223 63.5844H47.1223L43.0903 75.2484H40.0903L37.3783 67.1844H38.2903L35.5303 75.2484H32.5543ZM54.0677 75.5124C52.8037 75.5124 51.6757 75.2564 50.6837 74.7444C49.7077 74.2164 48.9397 73.4884 48.3797 72.5604C47.8197 71.6324 47.5397 70.5844 47.5397 69.4164C47.5397 68.2484 47.8117 67.2084 48.3557 66.2964C48.9157 65.3684 49.6677 64.6404 50.6117 64.1124C51.5557 63.5844 52.6197 63.3204 53.8037 63.3204C54.9557 63.3204 55.9717 63.5684 56.8517 64.0644C57.7317 64.5604 58.4197 65.2484 58.9157 66.1284C59.4277 67.0084 59.6837 68.0164 59.6837 69.1524C59.6837 69.3604 59.6677 69.5844 59.6357 69.8244C59.6197 70.0484 59.5797 70.3124 59.5157 70.6164L49.4597 70.6404V68.1204L57.9557 68.0964L56.3717 69.1524C56.3557 68.4804 56.2517 67.9284 56.0597 67.4964C55.8677 67.0484 55.5797 66.7124 55.1957 66.4884C54.8277 66.2484 54.3717 66.1284 53.8277 66.1284C53.2517 66.1284 52.7477 66.2644 52.3157 66.5364C51.8997 66.7924 51.5717 67.1604 51.3317 67.6404C51.1077 68.1204 50.9957 68.7044 50.9957 69.3924C50.9957 70.0804 51.1157 70.6724 51.3557 71.1684C51.6117 71.6484 51.9637 72.0244 52.4117 72.2964C52.8757 72.5524 53.4197 72.6804 54.0437 72.6804C54.6197 72.6804 55.1397 72.5844 55.6037 72.3924C56.0677 72.1844 56.4757 71.8804 56.8277 71.4804L58.8437 73.4964C58.2677 74.1684 57.5717 74.6724 56.7557 75.0084C55.9397 75.3444 55.0437 75.5124 54.0677 75.5124ZM61.4562 75.2484V63.5844H65.1282V75.2484H61.4562ZM65.1282 68.8404L63.5922 67.6404C63.8962 66.2804 64.4082 65.2244 65.1282 64.4724C65.8482 63.7204 66.8482 63.3444 68.1282 63.3444C68.6882 63.3444 69.1762 63.4324 69.5922 63.6084C70.0242 63.7684 70.4002 64.0244 70.7202 64.3764L68.5362 67.1364C68.3762 66.9604 68.1762 66.8244 67.9362 66.7284C67.6962 66.6324 67.4242 66.5844 67.1202 66.5844C66.5122 66.5844 66.0242 66.7764 65.6562 67.1604C65.3042 67.5284 65.1282 68.0884 65.1282 68.8404ZM77.5442 75.5124C76.1522 75.5124 74.9522 75.2884 73.9442 74.8404C72.9522 74.3764 72.0402 73.6804 71.2082 72.7524L73.6562 70.3284C74.2002 70.9524 74.8002 71.4404 75.4562 71.7924C76.1282 72.1284 76.9042 72.2964 77.7842 72.2964C78.5842 72.2964 79.2002 72.1524 79.6322 71.8644C80.0802 71.5764 80.3042 71.1764 80.3042 70.6644C80.3042 70.2004 80.1602 69.8244 79.8722 69.5364C79.5842 69.2484 79.2002 69.0004 78.7202 68.7924C78.2562 68.5844 77.7362 68.3844 77.1602 68.1924C76.6002 68.0004 76.0402 67.7844 75.4802 67.5444C74.9202 67.2884 74.4002 66.9764 73.9202 66.6084C73.4562 66.2244 73.0802 65.7524 72.7922 65.1924C72.5042 64.6164 72.3602 63.8964 72.3602 63.0324C72.3602 61.9924 72.6082 61.0964 73.1042 60.3444C73.6162 59.5924 74.3202 59.0244 75.2162 58.6404C76.1122 58.2404 77.1442 58.0404 78.3122 58.0404C79.4962 58.0404 80.5762 58.2484 81.5522 58.6644C82.5442 59.0804 83.3602 59.6484 84.0002 60.3684L81.5522 62.7924C81.0402 62.2644 80.5202 61.8724 79.9922 61.6164C79.4802 61.3604 78.8962 61.2324 78.2402 61.2324C77.5842 61.2324 77.0642 61.3604 76.6802 61.6164C76.2962 61.8564 76.1042 62.2084 76.1042 62.6724C76.1042 63.1044 76.2482 63.4564 76.5362 63.7284C76.8242 63.9844 77.2002 64.2084 77.6642 64.4004C78.1442 64.5924 78.6642 64.7844 79.2242 64.9764C79.8002 65.1684 80.3682 65.3924 80.9282 65.6484C81.4882 65.9044 82.0002 66.2324 82.4642 66.6324C82.9442 67.0164 83.3282 67.5124 83.6162 68.1204C83.9042 68.7124 84.0482 69.4484 84.0482 70.3284C84.0482 71.9444 83.4722 73.2164 82.3202 74.1444C81.1682 75.0564 79.5762 75.5124 77.5442 75.5124ZM91.8021 75.5124C90.5381 75.5124 89.4101 75.2564 88.4181 74.7444C87.4421 74.2164 86.6741 73.4884 86.1141 72.5604C85.5541 71.6324 85.2741 70.5844 85.2741 69.4164C85.2741 68.2484 85.5461 67.2084 86.0901 66.2964C86.6501 65.3684 87.4021 64.6404 88.3461 64.1124C89.2901 63.5844 90.3541 63.3204 91.5381 63.3204C92.6901 63.3204 93.7061 63.5684 94.5861 64.0644C95.4661 64.5604 96.1541 65.2484 96.6501 66.1284C97.1621 67.0084 97.4181 68.0164 97.4181 69.1524C97.4181 69.3604 97.4021 69.5844 97.3701 69.8244C97.3541 70.0484 97.3141 70.3124 97.2501 70.6164L87.1941 70.6404V68.1204L95.6901 68.0964L94.1061 69.1524C94.0901 68.4804 93.9861 67.9284 93.7941 67.4964C93.6021 67.0484 93.3141 66.7124 92.9301 66.4884C92.5621 66.2484 92.1061 66.1284 91.5621 66.1284C90.9861 66.1284 90.4821 66.2644 90.0501 66.5364C89.6341 66.7924 89.3061 67.1604 89.0661 67.6404C88.8421 68.1204 88.7301 68.7044 88.7301 69.3924C88.7301 70.0804 88.8501 70.6724 89.0901 71.1684C89.3461 71.6484 89.6981 72.0244 90.1461 72.2964C90.6101 72.5524 91.1541 72.6804 91.7781 72.6804C92.3541 72.6804 92.8741 72.5844 93.3381 72.3924C93.8021 72.1844 94.2101 71.8804 94.5621 71.4804L96.5781 73.4964C96.0021 74.1684 95.3061 74.6724 94.4901 75.0084C93.6741 75.3444 92.7781 75.5124 91.8021 75.5124ZM106.895 75.2484V68.6004C106.895 67.9924 106.703 67.5044 106.319 67.1364C105.951 66.7524 105.479 66.5604 104.903 66.5604C104.503 66.5604 104.151 66.6484 103.847 66.8244C103.543 66.9844 103.303 67.2244 103.127 67.5444C102.951 67.8484 102.863 68.2004 102.863 68.6004L101.447 67.9044C101.447 66.9924 101.647 66.1924 102.047 65.5044C102.447 64.8164 102.999 64.2884 103.703 63.9204C104.423 63.5364 105.231 63.3444 106.127 63.3444C106.991 63.3444 107.751 63.5524 108.407 63.9684C109.079 64.3684 109.607 64.9044 109.991 65.5764C110.375 66.2484 110.567 66.9844 110.567 67.7844V75.2484H106.895ZM99.1905 75.2484V63.5844H102.863V75.2484H99.1905ZM117.173 75.5364C116.485 75.5364 115.805 75.4484 115.133 75.2724C114.477 75.0964 113.861 74.8484 113.285 74.5284C112.725 74.1924 112.245 73.8084 111.845 73.3764L113.933 71.2644C114.317 71.6804 114.773 72.0084 115.301 72.2484C115.829 72.4724 116.405 72.5844 117.029 72.5844C117.461 72.5844 117.789 72.5204 118.013 72.3924C118.253 72.2644 118.373 72.0884 118.373 71.8644C118.373 71.5764 118.229 71.3604 117.941 71.2164C117.669 71.0564 117.317 70.9204 116.885 70.8084C116.453 70.6804 115.997 70.5444 115.517 70.4004C115.037 70.2564 114.581 70.0564 114.149 69.8004C113.717 69.5444 113.365 69.1924 113.093 68.7444C112.821 68.2804 112.685 67.6964 112.685 66.9924C112.685 66.2404 112.877 65.5924 113.261 65.0484C113.645 64.4884 114.189 64.0484 114.893 63.7284C115.597 63.4084 116.421 63.2484 117.365 63.2484C118.357 63.2484 119.269 63.4244 120.101 63.7764C120.949 64.1124 121.637 64.6164 122.165 65.2884L120.077 67.4004C119.709 66.9684 119.293 66.6644 118.829 66.4884C118.381 66.3124 117.941 66.2244 117.509 66.2244C117.093 66.2244 116.781 66.2884 116.573 66.4164C116.365 66.5284 116.261 66.6964 116.261 66.9204C116.261 67.1604 116.397 67.3524 116.669 67.4964C116.941 67.6404 117.293 67.7684 117.725 67.8804C118.157 67.9924 118.613 68.1284 119.093 68.2884C119.573 68.4484 120.029 68.6644 120.461 68.9364C120.893 69.2084 121.245 69.5764 121.517 70.0404C121.789 70.4884 121.925 71.0804 121.925 71.8164C121.925 72.9524 121.493 73.8564 120.629 74.5284C119.781 75.2004 118.629 75.5364 117.173 75.5364ZM129.677 75.5124C128.413 75.5124 127.285 75.2564 126.293 74.7444C125.317 74.2164 124.549 73.4884 123.989 72.5604C123.429 71.6324 123.149 70.5844 123.149 69.4164C123.149 68.2484 123.421 67.2084 123.965 66.2964C124.525 65.3684 125.277 64.6404 126.221 64.1124C127.165 63.5844 128.229 63.3204 129.413 63.3204C130.565 63.3204 131.581 63.5684 132.461 64.0644C133.341 64.5604 134.029 65.2484 134.525 66.1284C135.037 67.0084 135.293 68.0164 135.293 69.1524C135.293 69.3604 135.277 69.5844 135.245 69.8244C135.229 70.0484 135.189 70.3124 135.125 70.6164L125.069 70.6404V68.1204L133.565 68.0964L131.981 69.1524C131.965 68.4804 131.861 67.9284 131.669 67.4964C131.477 67.0484 131.189 66.7124 130.805 66.4884C130.437 66.2484 129.981 66.1284 129.437 66.1284C128.861 66.1284 128.357 66.2644 127.925 66.5364C127.509 66.7924 127.181 67.1604 126.941 67.6404C126.717 68.1204 126.605 68.7044 126.605 69.3924C126.605 70.0804 126.725 70.6724 126.965 71.1684C127.221 71.6484 127.573 72.0244 128.021 72.2964C128.485 72.5524 129.029 72.6804 129.653 72.6804C130.229 72.6804 130.749 72.5844 131.213 72.3924C131.677 72.1844 132.085 71.8804 132.437 71.4804L134.453 73.4964C133.877 74.1684 133.181 74.6724 132.365 75.0084C131.549 75.3444 130.653 75.5124 129.677 75.5124Z" fill="white"/>
</svg>
