<svg width="56" height="44" viewBox="0 0 56 44" fill="none" xmlns="http://www.w3.org/2000/svg">
<path d="M25.287 11.6018H1.50226V31.701H25.287V11.6018Z" fill="#99FF99" fill-opacity="0.8"/>
<path fill-rule="evenodd" clip-rule="evenodd" d="M12.0895 26.0962H24.3377C24.3136 26.427 23.8309 28.2643 23.2972 30.2335H5.11883C4.65138 30.2335 4.22508 30.041 3.91509 29.731C3.60509 29.421 3.41262 28.9947 3.41262 28.5272V15.2183C3.41262 14.7508 3.60509 14.3245 3.91509 14.0145C4.22508 13.7045 4.65138 13.5121 5.11883 13.5121H19.1732L18.9109 13.8276C18.7296 14.0201 18.7259 14.0669 18.5716 14.2485L17.9025 15.0153C17.8072 15.1357 17.8595 15.0935 17.7641 15.2146C17.6851 15.3148 17.6441 15.3381 17.5652 15.4382L13.1656 20.7526C13.0045 20.9424 12.984 20.9381 12.8159 21.1631L11.4354 22.8235C10.9462 23.363 10.3055 23.903 10.4018 24.7568C10.4723 25.382 10.9607 25.8447 11.4402 25.9967C11.6813 26.0731 11.7889 26.0962 12.0894 26.0962H12.0895ZM52.5534 17.607H52.5875C54.4645 17.607 56 19.1427 56 21.0196V22.7259C56 24.6027 54.4644 26.1384 52.5875 26.1384H52.5534V28.5271C52.5534 29.9366 51.978 31.2167 51.0511 32.1437C50.1242 33.0706 48.8441 33.646 47.4346 33.646H30.5498L28.5108 36.0975C27.5683 37.3516 25.4266 39.8122 24.3598 41.0692C23.5375 42.038 22.8322 43.2924 21.9204 43.4967H21.4041C21.2031 43.4526 20.9916 43.3566 20.7666 43.1967C19.6234 42.3848 20.55 40.5793 20.942 39.0026L21.3475 37.4777C21.4036 37.2529 21.4182 37.1757 21.4644 36.9914L21.8705 35.4696C21.9299 35.2276 22.1169 34.5426 22.3632 33.6459H5.11883C3.70941 33.6459 2.42929 33.0705 1.50227 32.1436C0.575356 31.2167 0 29.9366 0 28.527V15.2181C0 13.8087 0.575356 12.5285 1.50227 11.6015C2.42919 10.6746 3.70931 10.0993 5.11883 10.0993H22.0104L29.7627 0.774283C30.0408 0.479541 30.395 0.295673 30.752 0.248375H31.1124C31.3045 0.274788 31.4898 0.344916 31.6563 0.463161C32.5599 1.10527 32.4127 1.89684 32.1196 2.87782L31.2134 6.28194C31.0111 7.0685 30.8058 7.82711 30.6042 8.54477C30.4647 9.04089 30.3304 9.57949 30.1999 10.0992H47.4347C48.8441 10.0992 50.1242 10.6745 51.0512 11.6014C51.9781 12.5283 52.5535 13.8085 52.5535 15.218V17.6067L52.5534 17.607ZM33.3883 30.2335L34.0723 29.4111C34.2605 29.2114 34.2835 29.1327 34.4524 28.9465L37.3243 25.4833C37.4999 25.2895 37.5113 25.2662 37.6682 25.0669L39.8176 22.5028C39.9115 22.3921 39.9495 22.3681 40.0268 22.2731L41.6755 20.2895C41.9682 19.9702 42.2561 19.396 42.1312 18.8763C42.1247 18.8489 42.0301 18.5904 42.0205 18.5677C41.755 17.9404 41.2503 17.6493 40.4712 17.6493H28.2231C28.286 17.0036 28.9626 14.6806 29.2905 13.5121H47.4345C47.9019 13.5121 48.3282 13.7045 48.6382 14.0145C48.9482 14.3245 49.1407 14.7508 49.1407 15.2183V17.607V26.1384V28.5271C49.1407 28.9946 48.9482 29.4209 48.6382 29.7309C48.3282 30.0409 47.9019 30.2334 47.4345 30.2334H33.3882L33.3883 30.2335Z" fill="white"/>
</svg>
