<svg width="56" height="44" viewBox="0 0 56 44" fill="none" xmlns="http://www.w3.org/2000/svg">
<path d="M25.287 11.3535H1.50226V31.4526H25.287V11.3535Z" fill="#99FF99" fill-opacity="0.8"/>
<path fill-rule="evenodd" clip-rule="evenodd" d="M12.0895 25.8478H24.3377C24.3136 26.1786 23.8309 28.016 23.2972 29.9851H5.11883C4.65138 29.9851 4.22508 29.7926 3.91509 29.4826C3.60509 29.1726 3.41262 28.7463 3.41262 28.2789V14.9699C3.41262 14.5025 3.60509 14.0762 3.91509 13.7662C4.22508 13.4562 4.65138 13.2637 5.11883 13.2637H19.1732L18.9109 13.5792C18.7296 13.7717 18.7259 13.8185 18.5716 14.0001L17.9025 14.7669C17.8072 14.8873 17.8595 14.8451 17.7641 14.9662C17.6851 15.0665 17.6441 15.0897 17.5652 15.1898L13.1656 20.5042C13.0045 20.694 12.984 20.6897 12.8159 20.9147L11.4354 22.5752C10.9462 23.1146 10.3055 23.6546 10.4018 24.5084C10.4723 25.1337 10.9607 25.5963 11.4402 25.7483C11.6813 25.8247 11.7889 25.8478 12.0894 25.8478H12.0895ZM52.5534 17.3587H52.5875C54.4645 17.3587 56 18.8943 56 20.7712V22.4775C56 24.3544 54.4644 25.89 52.5875 25.89H52.5534V28.2788C52.5534 29.6882 51.978 30.9683 51.0511 31.8953C50.1242 32.8222 48.8441 33.3976 47.4346 33.3976H30.5498L28.5108 35.8491C27.5683 37.1032 25.4266 39.5638 24.3598 40.8208C23.5375 41.7896 22.8322 43.044 21.9204 43.2484H21.4041C21.2031 43.2043 20.9916 43.1082 20.7666 42.9483C19.6234 42.1365 20.55 40.3309 20.942 38.7542L21.3475 37.2294C21.4036 37.0045 21.4182 36.9273 21.4644 36.7431L21.8705 35.2212C21.9299 34.9792 22.1169 34.2942 22.3632 33.3975H5.11883C3.70941 33.3975 2.42929 32.8221 1.50227 31.8952C0.575356 30.9683 0 29.6882 0 28.2787V14.9697C0 13.5603 0.575356 12.2802 1.50227 11.3532C2.42919 10.4262 3.70931 9.85088 5.11883 9.85088H22.0104L29.7627 0.525908C30.0408 0.231166 30.395 0.047298 30.752 0H31.1124C31.3045 0.0264132 31.4898 0.0965415 31.6563 0.214786C32.5599 0.856892 32.4127 1.64847 32.1196 2.62944L31.2134 6.03356C31.0111 6.82012 30.8058 7.57873 30.6042 8.29639C30.4647 8.79251 30.3304 9.33111 30.1999 9.85078H47.4347C48.8441 9.85078 50.1242 10.4261 51.0512 11.3531C51.9781 12.28 52.5535 13.5601 52.5535 14.9696V17.3584L52.5534 17.3587ZM33.3883 29.9851L34.0723 29.1627C34.2605 28.9631 34.2835 28.8843 34.4524 28.6981L37.3243 25.2349C37.4999 25.0411 37.5113 25.0179 37.6682 24.8185L39.8176 22.2544C39.9115 22.1437 39.9495 22.1197 40.0268 22.0247L41.6755 20.0411C41.9682 19.7218 42.2561 19.1476 42.1312 18.6279C42.1247 18.6005 42.0301 18.342 42.0205 18.3194C41.755 17.692 41.2503 17.4009 40.4712 17.4009H28.2231C28.286 16.7553 28.9626 14.4322 29.2905 13.2637H47.4345C47.9019 13.2637 48.3282 13.4562 48.6382 13.7662C48.9482 14.0762 49.1407 14.5025 49.1407 14.9699V17.3587V25.89V28.2788C49.1407 28.7462 48.9482 29.1725 48.6382 29.4825C48.3282 29.7925 47.9019 29.985 47.4345 29.985H33.3882L33.3883 29.9851Z" fill="#00F244"/>
</svg>
