<svg width="56" height="44" viewBox="0 0 56 44" fill="none" xmlns="http://www.w3.org/2000/svg">
<path d="M25.287 11.8502H1.50226V31.9494H25.287V11.8502Z" fill="white" fill-opacity="0.8"/>
<path fill-rule="evenodd" clip-rule="evenodd" d="M12.0895 26.3446H24.3377C24.3136 26.6754 23.8309 28.5127 23.2972 30.4818H5.11883C4.65138 30.4818 4.22508 30.2894 3.91509 29.9794C3.60509 29.6694 3.41262 29.2431 3.41262 28.7756V15.4667C3.41262 14.9992 3.60509 14.5729 3.91509 14.2629C4.22508 13.9529 4.65138 13.7605 5.11883 13.7605H19.1732L18.9109 14.076C18.7296 14.2684 18.7259 14.3152 18.5716 14.4969L17.9025 15.2637C17.8072 15.384 17.8595 15.3419 17.7641 15.463C17.6851 15.5632 17.6441 15.5864 17.5652 15.6866L13.1656 21.0009C13.0045 21.1907 12.984 21.1864 12.8159 21.4115L11.4354 23.0719C10.9462 23.6113 10.3055 24.1514 10.4018 25.0052C10.4723 25.6304 10.9607 26.093 11.4402 26.2451C11.6813 26.3214 11.7889 26.3446 12.0894 26.3446H12.0895ZM52.5534 17.8554H52.5875C54.4645 17.8554 56 19.3911 56 21.2679V22.9742C56 24.8511 54.4644 26.3868 52.5875 26.3868H52.5534V28.7755C52.5534 30.1849 51.978 31.4651 51.0511 32.3921C50.1242 33.319 48.8441 33.8943 47.4346 33.8943H30.5498L28.5108 36.3459C27.5683 37.6 25.4266 40.0606 24.3598 41.3176C23.5375 42.2864 22.8322 43.5408 21.9204 43.7451H21.4041C21.2031 43.701 20.9916 43.605 20.7666 43.4451C19.6234 42.6332 20.55 40.8277 20.942 39.251L21.3475 37.7261C21.4036 37.5013 21.4182 37.4241 21.4644 37.2398L21.8705 35.718C21.9299 35.476 22.1169 34.791 22.3632 33.8942H5.11883C3.70941 33.8942 2.42929 33.3189 1.50227 32.392C0.575356 31.4651 0 30.1849 0 28.7754V15.4665C0 14.057 0.575356 12.7769 1.50227 11.8499C2.42919 10.923 3.70931 10.3476 5.11883 10.3476H22.0104L29.7627 1.02266C30.0408 0.727916 30.395 0.544048 30.752 0.49675H31.1124C31.3045 0.523163 31.4898 0.593291 31.6563 0.711536C32.5599 1.35364 32.4127 2.14522 32.1196 3.12619L31.2134 6.53031C31.0111 7.31687 30.8058 8.07548 30.6042 8.79314C30.4647 9.28926 30.3304 9.82786 30.1999 10.3475H47.4347C48.8441 10.3475 50.1242 10.9229 51.0512 11.8498C51.9781 12.7767 52.5535 14.0568 52.5535 15.4664V17.8551L52.5534 17.8554ZM33.3883 30.4818L34.0723 29.6594C34.2605 29.4598 34.2835 29.3811 34.4524 29.1949L37.3243 25.7317C37.4999 25.5379 37.5113 25.5146 37.6682 25.3153L39.8176 22.7512C39.9115 22.6405 39.9495 22.6164 40.0268 22.5214L41.6755 20.5379C41.9682 20.2186 42.2561 19.6443 42.1312 19.1247C42.1247 19.0972 42.0301 18.8387 42.0205 18.8161C41.755 18.1888 41.2503 17.8977 40.4712 17.8977H28.2231C28.286 17.252 28.9626 14.929 29.2905 13.7605H47.4345C47.9019 13.7605 48.3282 13.9529 48.6382 14.2629C48.9482 14.5729 49.1407 14.9992 49.1407 15.4667V17.8554V26.3868V28.7755C49.1407 29.243 48.9482 29.6693 48.6382 29.9793C48.3282 30.2893 47.9019 30.4817 47.4345 30.4817H33.3882L33.3883 30.4818Z" fill="white"/>
</svg>
